<?xml version="1.0" encoding="UTF-8" standalone="no"?>
<!DOCTYPE svg PUBLIC "-//W3C//DTD SVG 1.1//EN" "http://www.w3.org/Graphics/SVG/1.1/DTD/svg11.dtd">
<svg version="1.1" xmlns="http://www.w3.org/2000/svg" xmlns:xlink="http://www.w3.org/1999/xlink" preserveAspectRatio="xMidYMid meet" viewBox="0 0 50 200" width="50" height="200"><defs><path d="M39.99 0C45.52 0 50 4.48 50 10.01C50 48.01 50 151.99 50 189.99C50 195.52 45.52 200 39.99 200C31.99 200 18.01 200 10.01 200C4.48 200 0 195.52 0 189.99C0 151.99 0 48.01 0 10.01C0 4.48 4.48 0 10.01 0C18.01 0 31.99 0 39.99 0Z" id="c1RrUeZ0Tr"></path><path d="M38.09 64.46C38.59 64.8 38.71 65.48 38.36 65.98C32.75 73.99 16.55 97.13 10.93 105.14C10.59 105.64 9.91 105.76 9.41 105.41C8.44 104.74 6.44 103.33 5.47 102.65C4.97 102.31 4.85 101.62 5.2 101.13C10.81 93.12 27.01 69.98 32.63 61.96C32.97 61.47 33.65 61.35 34.15 61.7C35.12 62.37 37.12 63.78 38.09 64.46Z" id="a6hRBwFPB6"></path><path d="M9.41 98.7C9.9 98.35 10.58 98.47 10.93 98.97C16.54 106.98 32.74 130.12 38.35 138.13C38.7 138.63 38.58 139.31 38.09 139.66C37.12 140.34 35.11 141.74 34.14 142.42C33.65 142.76 32.97 142.64 32.62 142.15C27.01 134.14 10.81 111 5.2 102.98C4.85 102.49 4.97 101.81 5.46 101.46C6.43 100.78 8.44 99.38 9.41 98.7Z" id="gbjoyq5iQ"></path></defs><g><g><g><use xlink:href="#c1RrUeZ0Tr" opacity="1" fill="#dedede" fill-opacity="1"></use></g><g><use xlink:href="#a6hRBwFPB6" opacity="1" fill="#9b9b9b" fill-opacity="1"></use></g><g><use xlink:href="#gbjoyq5iQ" opacity="1" fill="#9b9b9b" fill-opacity="1"></use></g></g></g></svg>